<svg xmlns="http://www.w3.org/2000/svg" viewBox="0 0 600 400" width="600" height="400">
  <!-- Background -->
  <rect width="600" height="400" fill="#f0f4f8"/>
  
  <!-- Family Group -->
  <!-- Elderly Person -->
  <g transform="translate(300, 200)">
    <!-- Body -->
    <ellipse cx="0" cy="50" rx="40" ry="60" fill="#4a90e2" opacity="0.8"/>
    <!-- Head -->
    <circle cx="0" cy="-20" r="30" fill="#fdbcb4"/>
    <!-- Hair -->
    <path d="M -30 -30 Q 0 -40 30 -30 Q 25 -35 0 -35 Q -25 -35 -30 -30" fill="#d3d3d3"/>
    <!-- Eyes -->
    <circle cx="-10" cy="-20" r="3" fill="#333"/>
    <circle cx="10" cy="-20" r="3" fill="#333"/>
    <!-- Smile -->
    <path d="M -15 -10 Q 0 -5 15 -10" stroke="#333" stroke-width="2" fill="none"/>
    <!-- Glasses -->
    <circle cx="-10" cy="-20" r="12" stroke="#666" stroke-width="2" fill="none"/>
    <circle cx="10" cy="-20" r="12" stroke="#666" stroke-width="2" fill="none"/>
    <line x1="-2" y1="-20" x2="2" y2="-20" stroke="#666" stroke-width="2"/>
  </g>
  
  <!-- Adult Child -->
  <g transform="translate(200, 200)">
    <!-- Body -->
    <ellipse cx="0" cy="50" rx="35" ry="55" fill="#27ae60" opacity="0.8"/>
    <!-- Head -->
    <circle cx="0" cy="-15" r="25" fill="#fdbcb4"/>
    <!-- Hair -->
    <path d="M -25 -25 Q 0 -35 25 -25 Q 20 -30 0 -30 Q -20 -30 -25 -25" fill="#8b4513"/>
    <!-- Eyes -->
    <circle cx="-8" cy="-15" r="2" fill="#333"/>
    <circle cx="8" cy="-15" r="2" fill="#333"/>
    <!-- Smile -->
    <path d="M -10 -5 Q 0 0 10 -5" stroke="#333" stroke-width="2" fill="none"/>
  </g>
  
  <!-- Another Family Member -->
  <g transform="translate(400, 200)">
    <!-- Body -->
    <ellipse cx="0" cy="50" rx="35" ry="55" fill="#e74c3c" opacity="0.8"/>
    <!-- Head -->
    <circle cx="0" cy="-15" r="25" fill="#fdbcb4"/>
    <!-- Hair -->
    <path d="M -25 -20 Q 0 -30 25 -20 Q 30 -25 0 -40 Q -30 -25 -25 -20" fill="#333"/>
    <!-- Eyes -->
    <circle cx="-8" cy="-15" r="2" fill="#333"/>
    <circle cx="8" cy="-15" r="2" fill="#333"/>
    <!-- Smile -->
    <path d="M -10 -5 Q 0 0 10 -5" stroke="#333" stroke-width="2" fill="none"/>
  </g>
  
  <!-- Medical Professional -->
  <g transform="translate(100, 180)">
    <!-- Body -->
    <ellipse cx="0" cy="50" rx="30" ry="50" fill="#fff" stroke="#2c5aa0" stroke-width="2" opacity="0.9"/>
    <!-- Head -->
    <circle cx="0" cy="-10" r="22" fill="#fdbcb4"/>
    <!-- Hair -->
    <path d="M -22 -18 Q 0 -28 22 -18 Q 18 -22 0 -25 Q -18 -22 -22 -18" fill="#666"/>
    <!-- Eyes -->
    <circle cx="-7" cy="-10" r="2" fill="#333"/>
    <circle cx="7" cy="-10" r="2" fill="#333"/>
    <!-- Smile -->
    <path d="M -8 -2 Q 0 2 8 -2" stroke="#333" stroke-width="1.5" fill="none"/>
    <!-- Stethoscope -->
    <path d="M -15 20 Q -20 40 -10 50" stroke="#333" stroke-width="2" fill="none"/>
    <circle cx="-10" cy="52" r="5" fill="#333"/>
  </g>
  
  <!-- Health Icons -->
  <!-- Heart -->
  <g transform="translate(480, 100)">
    <path d="M 0 -10 C -10 -20 -20 -15 -20 -5 C -20 5 -10 15 0 20 C 10 15 20 5 20 -5 C 20 -15 10 -20 0 -10 Z" fill="#e74c3c" opacity="0.7"/>
  </g>
  
  <!-- Medicine -->
  <g transform="translate(120, 100)">
    <rect x="-15" y="-25" width="30" height="50" rx="15" fill="#27ae60" opacity="0.7"/>
    <line x1="-15" y1="0" x2="15" y2="0" stroke="#fff" stroke-width="3"/>
    <line x1="0" y1="-15" x2="0" y2="15" stroke="#fff" stroke-width="3"/>
  </g>
  
  <!-- Chart/Graph -->
  <g transform="translate(300, 320)">
    <rect x="-60" y="-40" width="120" height="60" fill="none" stroke="#2c5aa0" stroke-width="2" opacity="0.7"/>
    <polyline points="-50,-20 -30,-10 -10,-25 10,-5 30,-15 50,-8" fill="none" stroke="#4a90e2" stroke-width="3"/>
    <circle cx="-50" cy="-20" r="3" fill="#4a90e2"/>
    <circle cx="-30" cy="-10" r="3" fill="#4a90e2"/>
    <circle cx="-10" cy="-25" r="3" fill="#4a90e2"/>
    <circle cx="10" cy="-5" r="3" fill="#4a90e2"/>
    <circle cx="30" cy="-15" r="3" fill="#4a90e2"/>
    <circle cx="50" cy="-8" r="3" fill="#4a90e2"/>
  </g>
  
  <!-- Connecting Lines -->
  <line x1="200" y1="200" x2="300" y2="200" stroke="#2c5aa0" stroke-width="2" stroke-dasharray="5,5" opacity="0.5"/>
  <line x1="300" y1="200" x2="400" y2="200" stroke="#2c5aa0" stroke-width="2" stroke-dasharray="5,5" opacity="0.5"/>
  <line x1="150" y1="180" x2="250" y2="200" stroke="#2c5aa0" stroke-width="2" stroke-dasharray="5,5" opacity="0.5"/>
  
  <!-- Background Circles -->
  <circle cx="500" cy="300" r="80" fill="#e3f2fd" opacity="0.5"/>
  <circle cx="100" cy="300" r="60" fill="#e8f5e9" opacity="0.5"/>
  <circle cx="300" cy="80" r="70" fill="#fff3e0" opacity="0.5"/>
</svg>